<svg width="123" height="48" viewBox="0 0 123 48" fill="none" xmlns="http://www.w3.org/2000/svg">
  <path fill-rule="evenodd" clip-rule="evenodd" d="M61.9811 37.4477C58.7992 40.1617 54.6717 41.8002 50.1614 41.8002C40.0978 41.8002 31.9396 33.6431 31.9396 23.5809C31.9396 13.5186 40.0978 5.36157 50.1614 5.36157C54.6717 5.36157 58.7992 7 61.9811 9.71406C65.1631 7 69.2906 5.36158 73.8008 5.36158C83.8644 5.36158 92.0226 13.5186 92.0226 23.5809C92.0226 33.6431 83.8644 41.8002 73.8008 41.8002C69.2906 41.8002 65.1631 40.1617 61.9811 37.4477Z" fill="#ED0006"/>
  <path fill-rule="evenodd" clip-rule="evenodd" d="M61.9811 37.4479C65.899 34.1061 68.3834 29.1336 68.3834 23.5809C68.3834 18.0282 65.899 13.0556 61.9811 9.71387C65.163 6.99992 69.2904 5.36157 73.8006 5.36157C83.8642 5.36157 92.0224 13.5186 92.0224 23.5809C92.0224 33.6431 83.8642 41.8002 73.8006 41.8002C69.2904 41.8002 65.163 40.1618 61.9811 37.4479Z" fill="#F9A000"/>
  <path fill-rule="evenodd" clip-rule="evenodd" d="M61.9811 37.4487C65.899 34.107 68.3833 29.1345 68.3833 23.5819C68.3833 18.0293 65.899 13.0568 61.9811 9.71509C58.0633 13.0568 55.579 18.0293 55.579 23.5819C55.579 29.1345 58.0633 34.107 61.9811 37.4487Z" fill="#FF5E00"/>
</svg>
