<svg width="123" height="48" viewBox="0 0 123 48" fill="none" xmlns="http://www.w3.org/2000/svg">
  <path fill-rule="evenodd" clip-rule="evenodd" d="M107.62 31.9157L111.132 10.5762C111.186 10.245 111.486 10.0011 111.835 10H115.788C116.225 10 116.56 10.3738 116.491 10.7875L113.028 31.7427C112.938 32.2957 112.44 32.7021 111.854 32.7021H108.323C107.887 32.7021 107.552 32.3294 107.62 31.9157ZM80.7291 10.0011H72.1718C71.5876 10.0011 71.0897 10.4075 70.9982 10.9594L67.5379 31.9157C67.469 32.3294 67.8042 32.7021 68.2413 32.7021H72.632C73.0402 32.7021 73.3893 32.4179 73.453 32.0308L74.4349 26.0905C74.5252 25.5369 75.0242 25.131 75.6084 25.131H78.3155C83.9527 25.131 87.2046 22.5259 88.0551 17.3637C88.4389 15.1052 88.0701 13.3307 86.9632 12.0876C85.748 10.7233 83.5926 10.0011 80.7291 10.0011ZM81.7162 17.6551C81.2496 20.5876 78.9037 20.5876 76.6343 20.5876H75.3444L76.2516 15.1108C76.3054 14.7801 76.603 14.5362 76.9544 14.5362H77.5461C79.0901 14.5362 80.5491 14.5362 81.3017 15.3773C81.7509 15.8794 81.8876 16.6249 81.7162 17.6551ZM106.302 17.5611H102.208C101.856 17.5611 101.557 17.805 101.504 18.1362L101.323 19.2306L101.036 18.8341C100.149 17.6042 98.1721 17.1934 96.1979 17.1934C91.67 17.1934 87.8044 20.4688 87.0512 25.0636C86.661 27.3552 87.215 29.5467 88.5761 31.0752C89.8272 32.4803 91.6115 33.066 93.7368 33.066C97.3847 33.066 99.4076 30.8252 99.4076 30.8252L99.2252 31.913C99.1563 32.3288 99.4915 32.7015 99.9309 32.7015H103.62C104.204 32.7015 104.702 32.2951 104.793 31.7421L107.009 18.3475C107.077 17.9355 106.742 17.5611 106.302 17.5611ZM100.591 25.178C100.198 27.4138 98.3382 28.9146 95.9686 28.9146C94.7812 28.9146 93.8283 28.5502 93.2175 27.8595C92.6119 27.1738 92.3844 26.1972 92.5749 25.11C92.946 22.8931 94.8327 21.3436 97.1659 21.3436C98.3296 21.3436 99.275 21.7124 99.8985 22.4092C100.525 23.1132 100.773 24.0953 100.591 25.178Z" fill="#0070E0"/>
  <path fill-rule="evenodd" clip-rule="evenodd" d="M19.6999 10.0029H11.1441C10.5586 10.0029 10.0607 10.4094 9.96938 10.9613L6.50898 31.9176C6.4402 32.3312 6.77547 32.7039 7.21459 32.7039H11.2992C11.8847 32.7039 12.3826 32.2975 12.4739 31.7445L13.4073 26.0923C13.4973 25.5388 13.9964 25.1329 14.5807 25.1329H17.2892C22.9252 25.1329 26.1777 22.5277 27.0276 17.3655C27.4103 15.1071 27.0438 13.3325 25.9363 12.0894C24.7205 10.7251 22.5634 10.0029 19.6999 10.0029ZM20.687 17.6569C20.2192 20.5895 17.8735 20.5895 15.6053 20.5895H14.3142L15.22 15.1126C15.2738 14.7819 15.574 14.538 15.9243 14.538H16.5161C18.0611 14.538 19.5187 14.538 20.2719 15.3791C20.7206 15.8813 20.8584 16.6267 20.687 17.6569ZM45.2753 17.5629H41.1781C40.829 17.5629 40.5274 17.8068 40.4735 18.138L40.2923 19.2324L40.0057 18.8359C39.1188 17.6061 37.1411 17.1952 35.1669 17.1952C30.639 17.1952 26.7723 20.4706 26.0191 25.0654C25.6277 27.357 26.1841 29.5485 27.5452 31.077C28.7939 32.4822 30.5806 33.0678 32.7059 33.0678C36.3538 33.0678 38.3772 30.8271 38.3772 30.8271L38.1942 31.9148C38.1253 32.3307 38.4605 32.7034 38.8971 32.7034H42.5878C43.1749 32.7034 43.6699 32.2969 43.7625 31.7439L45.977 18.3493C46.047 17.9373 45.713 17.5629 45.2753 17.5629ZM39.564 25.1799C39.1686 27.4156 37.3108 28.9165 34.9417 28.9165C33.752 28.9165 32.8008 28.552 32.1906 27.8613C31.585 27.1756 31.3546 26.1991 31.5474 25.1119C31.9168 22.8949 33.8058 21.3454 36.139 21.3454C37.3021 21.3454 38.2481 21.7142 38.871 22.411C39.4951 23.115 39.7429 24.0971 39.564 25.1799ZM62.9788 17.5624H67.0962C67.6729 17.5624 68.0092 18.1801 67.6815 18.6319L53.9878 37.5122C53.7661 37.818 53.4008 38 53.0105 38H48.8983C48.3194 38 47.9813 37.3773 48.3165 36.9244L52.5804 31.1755L48.0455 18.4632C47.8886 18.0213 48.2302 17.5624 48.7223 17.5624H52.768C53.2936 17.5624 53.7574 17.892 53.9091 18.3725L56.3157 26.0503L61.9946 18.0606C62.2169 17.7487 62.5863 17.5624 62.9788 17.5624Z" fill="#225EC9"/>
</svg>
