<svg width="123" height="48" viewBox="0 0 123 48" fill="none" xmlns="http://www.w3.org/2000/svg">
  <path d="M75.6828 13.3649C75.6828 11.5071 77.1535 10 78.9643 10C80.7784 10 82.2481 11.5071 82.2481 13.3649C82.2481 15.2239 80.7784 16.7277 78.9643 16.7277C77.1535 16.7277 75.6828 15.2239 75.6828 13.3649Z" fill="#D52A9A"/>
  <path d="M85.1177 12.7514L91.7736 11.5307V37.7191H85.1177V12.7514Z" fill="#D52A9A"/>
  <path d="M94.8398 12.7514V37.7191H101.5V11.5307L94.8398 12.7514Z" fill="#D52A9A"/>
  <path d="M75.6368 18.5649V37.7196H82.296V18.5649H75.6368Z" fill="#D52A9A"/>
  <path d="M62.6018 26.9437C62.6018 21.3176 65.7276 18.4871 71.8802 18.2838C71.8802 18.2838 72.9915 18.2401 73.6473 18.3832V23.982C69.7472 24.1197 69.3164 25.5634 69.3164 28.9305V37.7194H62.6018V26.9437Z" fill="#D52A9A"/>
  <path d="M53.8142 18.5425L53.7803 18.6328C53.5419 19.2742 52.4568 22.1931 50.0217 25.2112V11.5307L43.1493 12.9241V37.7191H50.0217V30.0537C52.0118 33.1138 52.9951 37.7191 52.9951 37.7191H61.2252C60.4114 34.2504 56.8505 27.856 56.8505 27.856C60.0478 23.7009 61.4502 19.2759 61.6742 18.5425H53.8142Z" fill="#D52A9A"/>
  <path d="M28.8342 19.2901C28.8342 21.0878 30.7838 21.2179 31.6252 21.2736C37.797 21.6977 41.4753 24.7938 41.4753 29.5576C41.4753 33.7608 38.1862 38 30.8488 38C27.4467 38 24.5437 37.6568 21.9693 36.9629V30.845C23.6884 31.5695 26.521 32.3302 29.4389 32.3302C32.1019 32.3302 33.6857 31.4275 33.6857 29.8931C33.6857 28.0419 31.765 27.9213 31.0285 27.8751L31.0205 27.8746C22.4257 27.2746 21.5 22.0638 21.5 19.8518C21.5 16.0104 24.1598 11.5307 31.6668 11.5307C36.0213 11.5307 38.3686 12.2268 40.3907 12.9514L40.492 12.9831V18.925L40.4162 18.9032C39.6047 18.5513 38.6512 18.2059 38.6512 18.2059C36.9384 17.6803 34.5431 17.1207 32.6917 17.1207C31.6391 17.1207 28.8342 17.1207 28.8342 19.2901Z" fill="#D52A9A"/>
</svg>
