<svg width="123" height="48" viewBox="0 0 123 48" fill="none" xmlns="http://www.w3.org/2000/svg">
  <path fill-rule="evenodd" clip-rule="evenodd" d="M42.5012 36.4696H35.9237L30.9914 16.8167C30.7573 15.9127 30.2603 15.1134 29.5291 14.7368C27.7043 13.7902 25.6936 13.0368 23.5 12.6568V11.9002H34.0958C35.5581 11.9002 36.6549 13.0368 36.8377 14.3568L39.3969 28.5331L45.9711 11.9002H52.3658L42.5012 36.4696ZM56.0249 36.4696H49.813L54.9281 11.9002H61.14L56.0249 36.4696ZM69.1705 18.7064C69.3533 17.3831 70.45 16.6264 71.7296 16.6264C73.7404 16.4364 75.9307 16.8164 77.7587 17.7597L78.8555 12.4698C77.0275 11.7132 75.0167 11.3333 73.192 11.3333C67.1629 11.3333 62.7758 14.7365 62.7758 19.4597C62.7758 23.0529 65.8833 24.9396 68.0769 26.0762C70.45 27.2095 71.364 27.9661 71.1812 29.0995C71.1812 30.7994 69.3533 31.5561 67.5285 31.5561C65.335 31.5561 63.1414 30.9894 61.1338 30.0428L60.0371 35.336C62.2306 36.2793 64.6038 36.6593 66.7973 36.6593C73.5576 36.846 77.7587 33.446 77.7587 28.3428C77.7587 21.9163 69.1705 21.5396 69.1705 18.7064ZM99.5 36.4696L94.5677 11.9002H89.2698C88.173 11.9002 87.0762 12.6568 86.7106 13.7902L77.5772 36.4696H83.9719L85.2483 32.8796H93.1053L93.8365 36.4696H99.5ZM90.1847 18.5168L92.0095 27.7766H86.8944L90.1847 18.5168Z" fill="#2141CE"/>
</svg>
